<?xml version="1.0" encoding="UTF-8"?>
<svg version="1.1" xmlns="http://www.w3.org/2000/svg" width="32" height="32">
<path d="M0 0 C1.13308594 -0.00773438 2.26617187 -0.01546875 3.43359375 -0.0234375 C6.84616277 0.41112185 7.99955352 1.19787342 10.5625 3.375 C12.89123375 4.05755989 15.22432791 4.72550775 17.5625 5.375 C20.91068194 8.72318194 20.6260259 13.07928318 20.75 17.625 C20.5625 21.375 20.5625 21.375 18.5625 23.375 C18.8925 24.365 19.2225 25.355 19.5625 26.375 C16.84899727 27.73175137 14.56189032 27.43881682 11.5625 27.375 C11.2325 27.375 10.9025 27.375 10.5625 27.375 C9.93794922 28.10396484 9.93794922 28.10396484 9.30078125 28.84765625 C6.46874802 31.33602702 3.70184149 30.83894004 0.078125 30.73828125 C-3.70988985 30.19125426 -5.56927571 28.87550323 -8.4375 26.375 C-10.31827284 22.61345432 -9.66552645 18.07676726 -9.6875 13.9375 C-9.708125 12.97005859 -9.72875 12.00261719 -9.75 11.00585938 C-9.75515625 10.07708984 -9.7603125 9.14832031 -9.765625 8.19140625 C-9.7749707 7.34006104 -9.78431641 6.48871582 -9.79394531 5.61157227 C-8.89793592 -0.0105798 -4.96233513 -0.0337957 0 0 Z " fill="#2F4A73" transform="translate(10.4375,0.625)"/>
<path d="M0 0 C3.73065439 0.08707093 5.24931958 0.900639 8.125 3.3125 C10.45373375 3.99505989 12.78682791 4.66300775 15.125 5.3125 C18.47318194 8.66068194 18.1885259 13.01678318 18.3125 17.5625 C18.125 21.3125 18.125 21.3125 16.125 23.3125 C16.455 24.3025 16.785 25.2925 17.125 26.3125 C14.41149727 27.66925137 12.12439032 27.37631682 9.125 27.3125 C8.795 27.3125 8.465 27.3125 8.125 27.3125 C5.58666551 26.04333275 5.23099099 24.89625191 4 22.375 C3.64679687 21.66472656 3.29359375 20.95445313 2.9296875 20.22265625 C2.125 18.3125 2.125 18.3125 2.125 16.3125 C2.785 16.3125 3.445 16.3125 4.125 16.3125 C3.75375 15.755625 3.3825 15.19875 3 14.625 C1.81830637 11.50195256 2.87575096 10.32539475 4.125 7.3125 C3.82980232 4.5788568 3.82980232 4.5788568 3.125 2.3125 C0.155 2.3125 -2.815 2.3125 -5.875 2.3125 C-3.875 0.3125 -3.875 0.3125 0 0 Z " fill="#324069" transform="translate(12.875,0.6875)"/>
<path d="M0 0 C2 2 2 2 2 4.8125 C0.72534411 8.87546565 -1.3549995 10.97499972 -5 13 C-8.75 13.9375 -8.75 13.9375 -12 14 C-14 12 -14 12 -14.0625 9.25 C-11.98751078 2.90297415 -6.85535342 -1.27541459 0 0 Z " fill="#5267C7" transform="translate(16,2)"/>
<path d="M0 0 C3.34362255 0.24767574 4.28573857 1.27924452 6.75 3.6875 C8.70462327 6.16975164 9.00122675 7.01083632 9.375 10.3125 C9 13 9 13 8 14 C5.66705225 14.04241723 3.33297433 14.04092937 1 14 C0.34 14 -0.32 14 -1 14 C-1.99 14 -2.98 14 -4 14 C-4.66 12.35 -5.32 10.7 -6 9 C-5.34 9 -4.68 9 -4 9 C-3.71125 8.2575 -3.4225 7.515 -3.125 6.75 C-2.17697356 4.43260203 -1.15154089 2.22082885 0 0 Z " fill="#665071" transform="translate(21,8)"/>
<path d="M0 0 C3.63 0.33 7.26 0.66 11 1 C10.67 2.65 10.34 4.3 10 6 C10.33 6 10.66 6 11 6 C11.66 5.01 12.32 4.02 13 3 C14.5625 4.1875 14.5625 4.1875 16 6 C15.6875 8.6875 15.6875 8.6875 15 11 C11.00125842 12.05849042 7.9906017 12.1639255 4 11 C1.0625 8.8125 1.0625 8.8125 -1 6 C-0.8125 2.6875 -0.8125 2.6875 0 0 Z " fill="#1E8A78" transform="translate(3,18)"/>
<path d="M0 0 C3.625 -0.1875 3.625 -0.1875 7 0 C6.45276317 3.37462715 5.9451 5.08235 4 8 C0.375 8.1875 0.375 8.1875 -3 8 C-2.45276317 4.62537285 -1.9451 2.91765 0 0 Z " fill="#4A609A" transform="translate(8,5)"/>
<path d="M0 0 C0.66 0.33 1.32 0.66 2 1 C2.04254356 2.99954746 2.04080783 5.00041636 2 7 C1 8 1 8 -2.4375 8.25 C-3.613125 8.1675 -4.78875 8.085 -6 8 C-6.66 7.01 -7.32 6.02 -8 5 C-6.1875 3.4375 -6.1875 3.4375 -4 2 C-3.01 2.33 -2.02 2.66 -1 3 C-0.67 2.01 -0.34 1.02 0 0 Z " fill="#EC8A99" transform="translate(28,14)"/>
<path d="M0 0 C3.63 0.33 7.26 0.66 11 1 C10.67 2.65 10.34 4.3 10 6 C7.525 5.01 7.525 5.01 5 4 C4.67 4.99 4.34 5.98 4 7 C2 5.1875 2 5.1875 0 3 C0 2.01 0 1.02 0 0 Z " fill="#43BF99" transform="translate(3,18)"/>
<path d="M0 0 C2 3 2 3 2 5 C1.01 5 0.02 5 -1 5 C0.32 5.66 1.64 6.32 3 7 C0.375 10.875 0.375 10.875 -3 12 C-3.66 10.35 -4.32 8.7 -5 7 C-4.34 7 -3.68 7 -3 7 C-2.690625 6.21625 -2.38125 5.4325 -2.0625 4.625 C-1 2 -1 2 0 0 Z " fill="#B86F84" transform="translate(20,10)"/>
<path d="M0 0 C2.1640625 0.2421875 2.1640625 0.2421875 4.625 0.875 C5.44226563 1.07867188 6.25953125 1.28234375 7.1015625 1.4921875 C8.04128906 1.74355469 8.04128906 1.74355469 9 2 C8.01 2.495 8.01 2.495 7 3 C7 3.66 7 4.32 7 5 C6.195625 5.12375 5.39125 5.2475 4.5625 5.375 C3.2940625 5.684375 3.2940625 5.684375 2 6 C1.67 6.66 1.34 7.32 1 8 C0.01 6.02 -0.98 4.04 -2 2 C-1.34 1.34 -0.68 0.68 0 0 Z " fill="#615474" transform="translate(19,20)"/>
<path d="M0 0 C0.33 0 0.66 0 1 0 C1.125 2.875 1.125 2.875 1 6 C0.34 6.66 -0.32 7.32 -1 8 C-0.67 8.99 -0.34 9.98 0 11 C-2.70879335 12.35439668 -5.00933268 12.06501451 -8 12 C-7.67 11.01 -7.34 10.02 -7 9 C-6.01 9 -5.02 9 -4 9 C-4 8.34 -4 7.68 -4 7 C-3.01 6.34 -2.02 5.68 -1 5 C-0.27034634 2.43717258 -0.27034634 2.43717258 0 0 Z " fill="#485E7E" transform="translate(30,16)"/>
<path d="M0 0 C2.0625 0.4375 2.0625 0.4375 4 1 C2.68 3.31 1.36 5.62 0 8 C-0.99 8 -1.98 8 -3 8 C-1.125 1.125 -1.125 1.125 0 0 Z " fill="#465083" transform="translate(18,7)"/>
<path d="M0 0 C1.32 0.99 2.64 1.98 4 3 C3.67 3.99 3.34 4.98 3 6 C0.69 6 -1.62 6 -4 6 C-4 5.34 -4 4.68 -4 4 C-3.01 3.67 -2.02 3.34 -1 3 C-0.67 2.01 -0.34 1.02 0 0 Z " fill="#44C19A" transform="translate(15,21)"/>
<path d="M0 0 C6.75 1.75 6.75 1.75 9 4 C9 4.99 9 5.98 9 7 C5.88626628 5.50079488 2.87771795 3.91847864 0 2 C0 1.34 0 0.68 0 0 Z " fill="#7C7291" transform="translate(21,4)"/>
<path d="M0 0 C3.16115776 1.36983503 3.9927092 1.9890638 6 5 C5.34 5 4.68 5 4 5 C3.67 5.66 3.34 6.32 3 7 C0 3.375 0 3.375 0 0 Z " fill="#246F73" transform="translate(2,21)"/>
<path d="M0 0 C0 0.99 0 1.98 0 3 C-1.65 3.33 -3.3 3.66 -5 4 C-5.66 3.01 -6.32 2.02 -7 1 C-3.535 0.505 -3.535 0.505 0 0 Z " fill="#226C71" transform="translate(18,26)"/>
<path d="M0 0 C2.31 0 4.62 0 7 0 C6.67 1.65 6.34 3.3 6 5 C5.67 4.34 5.34 3.68 5 3 C3.07361988 2.24756445 3.07361988 2.24756445 1 2 C0.01 2.495 0.01 2.495 -1 3 C-0.67 2.01 -0.34 1.02 0 0 Z " fill="#394D81" transform="translate(8,5)"/>
<path d="M0 0 C2.31 0 4.62 0 7 0 C6.67 1.65 6.34 3.3 6 5 C4.68 4.34 3.36 3.68 2 3 C2 2.34 2 1.68 2 1 C1.34 0.67 0.68 0.34 0 0 Z " fill="#38A58C" transform="translate(7,19)"/>
<path d="M0 0 C3.24271506 0.5590888 4.93057424 1.4132178 7 4 C7 4.66 7 5.32 7 6 C5.68 5.67 4.36 5.34 3 5 C3 4.34 3 3.68 3 3 C2.01 2.67 1.02 2.34 0 2 C0 1.34 0 0.68 0 0 Z " fill="#DE8595" transform="translate(21,8)"/>
<path d="M0 0 C0.99 0 1.98 0 3 0 C2.00102287 2.99693138 1.34869747 4.02709413 -1 6 C-1.66 6 -2.32 6 -3 6 C-2.42655063 3.13275314 -2.1385485 2.1385485 0 0 Z " fill="#516793" transform="translate(4,1)"/>
</svg>
